<svg width="32" height="32" xmlns="http://www.w3.org/2000/svg" fill="none">

 <g>
  <title>Layer 1</title>
  <path id="svg_1" fill="#000" d="m15.93,31.58666c-0.56,0 -1.01,-0.50365 -1.01,-1.13041l0,-14.51625l2.03,0l0,14.50506c-0.01,0.63795 -0.46,1.1416 -1.02,1.1416z"/>
  <path id="svg_2" fill="#000" d="m15.76333,16.02667c4.3796,0 7.93,-3.5504 7.93,-7.93c0,-4.37962 -3.5504,-7.93 -7.93,-7.93s-7.93,3.55038 -7.93,7.93c0,4.3796 3.5504,7.93 7.93,7.93z"/>
  <path id="svg_3" fill="#ffffff" d="m16.5,5.41001c-1.04,1.04 -1.09,2.66 -0.12,3.63c0.97,0.96999 2.6,0.92 3.63,-0.12c1.04,-1.04 1.09,-2.66 0.12,-3.63c-0.97,-0.97 -2.6,-0.92 -3.63,0.12z"/>
 </g>
</svg>